<svg viewBox="0 0 362 361" xmlns="http://www.w3.org/2000/svg">
<path d="M166.602 97.2967C175.879 88.084 180.536 74.2396 180.536 55.594C180.536 36.9483 175.879 22.9307 166.602 13.801C157.36 4.59914 145.627 0 131.512 0H-2.20337e-06V48.6917H131.44C132.74 48.6917 133.751 49.4859 134.4 51.0743C135.043 52.5039 135.375 54.0536 135.375 55.6211C135.375 57.1885 135.043 58.7382 134.4 60.1679C133.751 61.7563 132.74 62.5505 131.44 62.5505H-2.20337e-06V111.152H131.44C145.519 111.116 157.288 106.495 166.602 97.2967ZM131.44 173.641C132.74 173.641 133.751 174.435 134.4 176.024C135.043 177.453 135.375 179.003 135.375 180.57C135.375 182.138 135.043 183.688 134.4 185.117C133.751 186.706 132.74 187.5 131.44 187.5H-2.20337e-06V236.094H131.44C145.519 236.094 157.252 231.513 166.529 222.311C175.807 213.109 180.464 199.272 180.464 180.608C180.464 161.945 175.807 147.956 166.529 138.826C157.252 129.625 145.555 125.031 131.44 125.043H-2.20337e-06V173.717H131.44V173.641Z" transform="translate(180.604)"/>
<path d="M49.0238 62.4927C47.7242 62.4927 46.7134 61.6985 46.0636 60.1101C45.421 58.6804 45.0887 57.1308 45.0887 55.5633C45.0887 53.9959 45.421 52.4462 46.0636 51.0165C46.7134 49.4281 47.7242 48.6339 49.0238 48.6339H166.674V-7.93213e-06H49.0238C34.9087 -7.93213e-06 23.2123 4.59432 13.9346 13.783C4.6569 22.9849 0 36.9844 0 55.6012C0 74.218 4.6569 88.1814 13.9346 97.3111C23.2123 106.513 34.9809 111.094 49.0238 111.094L204.651 111.022L166.674 62.4927H49.0238Z" transform="translate(0.139999 187.283)"/>
<path d="M37.9772 48.5329L131.44 48.5906C132.74 48.5906 133.751 49.3848 134.4 50.9732C135.043 52.4029 135.375 53.9526 135.375 55.52C135.375 57.0875 135.043 58.6371 134.4 60.0668C133.751 61.6552 132.74 62.4494 131.44 62.4494H-2.20337e-06V111.044H131.44C145.519 111.044 157.252 106.463 166.529 97.2606C175.807 88.0587 180.464 74.2216 180.464 55.5688C180.464 36.9159 175.807 22.9163 166.529 13.7866C157.252 4.58353 145.555 -0.0120009 131.44 3.23836e-05H-2.20337e-06L37.9772 48.5329Z" transform="translate(180.604 249.956)"/>
</svg>
