<svg width="1440" height="1024" viewBox="0 0 1440 1024" fill="none" xmlns="http://www.w3.org/2000/svg">
<rect width="7808" height="1304" fill="black" fill-opacity="0" transform="translate(-452 -126)"/>
<rect x="114" width="1326" height="1024" fill="white"/>
<rect width="1641" height="268.056" fill="black" fill-opacity="0" transform="translate(-74 138.025)"/>
<rect width="1514.35" height="268.056" fill="black" fill-opacity="0" transform="translate(-74 138.025)"/>
<path d="M282.263 272.053L82.7192 388.124L82.7192 155.981L282.263 272.053Z" fill="#C4C4C4"/>
<path d="M192.059 272.053L-7.48529 388.124L-7.48529 155.981L192.059 272.053Z" fill="#604949"/>
<path d="M572.013 272.053L372.469 388.124V155.981L572.013 272.053Z" fill="#C4C4C4"/>
<path d="M481.808 272.053L282.264 388.124V155.981L481.808 272.053Z" fill="#604949"/>
<path d="M861.762 272.053L662.218 388.124V155.981L861.762 272.053Z" fill="#C4C4C4"/>
<path d="M771.557 272.053L572.013 388.124V155.981L771.557 272.053Z" fill="#604949"/>
<path d="M1151.51 272.053L951.966 388.124V155.981L1151.51 272.053Z" fill="#C4C4C4"/>
<path d="M1061.31 272.053L861.761 388.124V155.981L1061.31 272.053Z" fill="#604949"/>
<path d="M1440.35 272.053L1240.8 388.124V155.981L1440.35 272.053Z" fill="#C4C4C4"/>
<path d="M1350.14 272.053L1150.6 388.124V155.981L1350.14 272.053Z" fill="#604949"/>
<g style="mix-blend-mode:overlay">
<rect width="1514.35" height="268.056" fill="black" fill-opacity="0" transform="translate(1567 138.025) scale(-1 1)"/>
<path d="M1210.74 272.053L1410.28 388.124V155.981L1210.74 272.053Z" fill="#C4C4C4"/>
<path d="M1300.94 272.053L1500.49 388.124V155.981L1300.94 272.053Z" fill="#604949"/>
<path d="M920.987 272.053L1120.53 388.124V155.981L920.987 272.053Z" fill="#C4C4C4"/>
<path d="M1011.19 272.053L1210.74 388.124V155.981L1011.19 272.053Z" fill="#604949"/>
<path d="M631.238 272.053L830.782 388.124V155.981L631.238 272.053Z" fill="#C4C4C4"/>
<path d="M721.443 272.053L920.987 388.124V155.981L721.443 272.053Z" fill="#604949"/>
<path d="M341.489 272.053L541.033 388.124V155.981L341.489 272.053Z" fill="#C4C4C4"/>
<path d="M431.694 272.053L631.238 388.124V155.981L431.694 272.053Z" fill="#604949"/>
<path d="M52.6514 272.053L252.195 388.124L252.195 155.981L52.6514 272.053Z" fill="#C4C4C4"/>
<path d="M142.856 272.053L342.4 388.124V155.981L142.856 272.053Z" fill="#604949"/>
</g>
<rect width="7808" height="679.209" fill="black" fill-opacity="0" transform="translate(-452 341.586)"/>
<rect width="4151.13" height="679.209" fill="black" fill-opacity="0" transform="translate(3699.13 1020.79) rotate(180)"/>
<rect width="3830.75" height="679.209" fill="black" fill-opacity="0" transform="translate(3699.13 1020.79) rotate(180)"/>
<path d="M1332 681.19L1836.77 387.084V975.296L1332 681.19Z" fill="#C4C4C4"/>
<path d="M599.037 681.19L1103.81 387.084V975.296L599.037 681.19Z" fill="#C4C4C4"/>
<path d="M827.223 681.19L1332 387.084V975.296L827.223 681.19Z" fill="#604949"/>
<path d="M-131.617 681.19L373.157 387.084L373.157 975.296L-131.617 681.19Z" fill="#C4C4C4"/>
<path d="M96.5696 681.19L601.344 387.084L601.344 975.296L96.5696 681.19Z" fill="#604949"/>
<g style="mix-blend-mode:overlay">
<rect width="3830.75" height="679.209" fill="black" fill-opacity="0" transform="translate(-452 1020.79) scale(1 -1)"/>
<path d="M449.217 681.19L-55.5574 387.084L-55.5574 975.296L449.217 681.19Z" fill="#C4C4C4"/>
<path d="M221.032 681.19L-283.742 387.084L-283.742 975.296L221.032 681.19Z" fill="#604949"/>
<path d="M1182.18 681.19L677.405 387.084V975.296L1182.18 681.19Z" fill="#C4C4C4"/>
<path d="M953.992 681.19L449.218 387.084L449.218 975.296L953.992 681.19Z" fill="#604949"/>
<path d="M1915.14 681.19L1410.36 387.084V975.296L1915.14 681.19Z" fill="#C4C4C4"/>
<path d="M1686.95 681.19L1182.18 387.084V975.296L1686.95 681.19Z" fill="#604949"/>
</g>
<rect width="1545" height="134.028" fill="black" fill-opacity="0" transform="translate(-40 495.768)"/>
<rect width="821.038" height="134.028" fill="black" fill-opacity="0" transform="translate(683.962 629.796) scale(1 -1)"/>
<rect width="757.67" height="134.028" fill="black" fill-opacity="0" transform="translate(683.962 629.796) scale(1 -1)"/>
<path d="M862.211 562.782L762.373 504.746V620.818L862.211 562.782Z" fill="#C4C4C4"/>
<path d="M817.079 562.782L717.241 504.746V620.818L817.079 562.782Z" fill="#604949"/>
<path d="M1007.18 562.782L907.343 504.746V620.818L1007.18 562.782Z" fill="#C4C4C4"/>
<path d="M962.048 562.782L862.211 504.746V620.818L962.048 562.782Z" fill="#604949"/>
<path d="M1152.15 562.782L1052.31 504.746V620.818L1152.15 562.782Z" fill="#C4C4C4"/>
<path d="M1107.02 562.782L1007.18 504.746V620.818L1107.02 562.782Z" fill="#604949"/>
<path d="M1297.12 562.782L1197.28 504.746V620.818L1297.12 562.782Z" fill="#C4C4C4"/>
<path d="M1251.99 562.782L1152.15 504.746V620.818L1251.99 562.782Z" fill="#604949"/>
<path d="M1441.63 562.782L1341.79 504.746V620.818L1441.63 562.782Z" fill="#C4C4C4"/>
<path d="M1396.5 562.782L1296.66 504.746V620.818L1396.5 562.782Z" fill="#604949"/>
<g style="mix-blend-mode:overlay">
<rect width="757.671" height="134.028" fill="black" fill-opacity="0" transform="translate(1505 629.796) rotate(-180)"/>
<path d="M1326.75 562.782L1426.59 504.746V620.818L1326.75 562.782Z" fill="#C4C4C4"/>
<path d="M1371.88 562.782L1471.72 504.746V620.818L1371.88 562.782Z" fill="#604949"/>
<path d="M1181.78 562.782L1281.62 504.746V620.818L1181.78 562.782Z" fill="#C4C4C4"/>
<path d="M1226.91 562.782L1326.75 504.746V620.818L1226.91 562.782Z" fill="#604949"/>
<path d="M1036.81 562.782L1136.65 504.746V620.818L1036.81 562.782Z" fill="#C4C4C4"/>
<path d="M1081.94 562.782L1181.78 504.746V620.818L1081.94 562.782Z" fill="#604949"/>
<path d="M891.843 562.782L991.68 504.746V620.818L891.843 562.782Z" fill="#C4C4C4"/>
<path d="M936.975 562.782L1036.81 504.746V620.818L936.975 562.782Z" fill="#604949"/>
<path d="M747.329 562.782L847.166 504.746V620.818L747.329 562.782Z" fill="#C4C4C4"/>
<path d="M792.461 562.782L892.299 504.746V620.818L792.461 562.782Z" fill="#604949"/>
</g>
<rect width="821.038" height="134.028" fill="black" fill-opacity="0" transform="translate(-40 629.796) scale(1 -1)"/>
<rect width="757.67" height="134.028" fill="black" fill-opacity="0" transform="translate(-40 629.796) scale(1 -1)"/>
<path d="M138.248 562.782L38.411 504.746L38.411 620.818L138.248 562.782Z" fill="#C4C4C4"/>
<path d="M93.1165 562.782L-6.72091 504.746L-6.72091 620.818L93.1165 562.782Z" fill="#604949"/>
<path d="M283.218 562.782L183.381 504.746L183.381 620.818L283.218 562.782Z" fill="#C4C4C4"/>
<path d="M238.086 562.782L138.248 504.746L138.248 620.818L238.086 562.782Z" fill="#604949"/>
<path d="M428.187 562.782L328.35 504.746V620.818L428.187 562.782Z" fill="#C4C4C4"/>
<path d="M383.056 562.782L283.218 504.746V620.818L383.056 562.782Z" fill="#604949"/>
<path d="M573.157 562.782L473.319 504.746V620.818L573.157 562.782Z" fill="#C4C4C4"/>
<path d="M528.025 562.782L428.187 504.746V620.818L528.025 562.782Z" fill="#604949"/>
<path d="M717.67 562.782L617.833 504.746V620.818L717.67 562.782Z" fill="#C4C4C4"/>
<path d="M672.538 562.782L572.701 504.746V620.818L672.538 562.782Z" fill="#604949"/>
<g style="mix-blend-mode:overlay">
<rect width="757.67" height="134.028" fill="black" fill-opacity="0" transform="translate(781.038 629.796) rotate(-180)"/>
<path d="M602.789 562.782L702.627 504.746V620.818L602.789 562.782Z" fill="#C4C4C4"/>
<path d="M647.921 562.782L747.758 504.746V620.818L647.921 562.782Z" fill="#604949"/>
<path d="M457.819 562.782L557.656 504.746V620.818L457.819 562.782Z" fill="#C4C4C4"/>
<path d="M502.951 562.782L602.789 504.746V620.818L502.951 562.782Z" fill="#604949"/>
<path d="M312.85 562.782L412.687 504.746V620.818L312.85 562.782Z" fill="#C4C4C4"/>
<path d="M357.982 562.782L457.82 504.746V620.818L357.982 562.782Z" fill="#604949"/>
<path d="M167.881 562.782L267.718 504.746V620.818L167.881 562.782Z" fill="#C4C4C4"/>
<path d="M213.013 562.782L312.85 504.746V620.818L213.013 562.782Z" fill="#604949"/>
<path d="M23.3672 562.782L123.205 504.746L123.205 620.818L23.3672 562.782Z" fill="#C4C4C4"/>
<path d="M68.4995 562.782L168.337 504.746V620.818L68.4995 562.782Z" fill="#604949"/>
</g>
<rect style="mix-blend-mode:overlay" y="73.5301" width="1440" height="906.955" fill="#F90094"/>
<ellipse cx="225.5" cy="763.32" rx="315.5" ry="317.938" fill="#219653" style="mix-blend-mode:hard-light"/>
<ellipse cx="627" cy="301.277" rx="120" ry="120.927" fill="#219653" style="mix-blend-mode:hard-light"/>
<ellipse cx="879" cy="891.805" rx="50" ry="50.3864" fill="#219653" style="mix-blend-mode:hard-light"/>
<ellipse cx="1024" cy="713.437" rx="50" ry="50.3864" fill="#219653" style="mix-blend-mode:hard-light"/>
<ellipse cx="1216.5" cy="300.773" rx="225.5" ry="227.243" fill="#219653" style="mix-blend-mode:hard-light"/>
<ellipse cx="-9.5" cy="101.243" rx="225.5" ry="227.243" fill="#219653" style="mix-blend-mode:hard-light"/>
<ellipse cx="1336.5" cy="970.912" rx="205.5" ry="207.088" fill="#219653" style="mix-blend-mode:hard-light"/>
</svg>
