<svg xmlns="http://www.w3.org/2000/svg" viewBox="0 0 70 55"><defs><style>.cls-1{fill:#fff;}</style></defs><title>envelope-ic</title><g id="Layer_2" data-name="Layer 2"><g id="Layer_1-2" data-name="Layer 1"><path class="cls-1" d="M63.32,17C57.23,21.17,51.09,25.39,45,29.65,42.5,31.41,38.2,35,35,35H35c-3.16,0-7.46-3.59-10-5.35C18.91,25.39,12.77,21.17,6.72,17,3.95,15.08,0,10.66,0,7.11,0,3.28,2.07,0,6.25,0h57.5A6.29,6.29,0,0,1,70,6.25C70,10.63,66.76,14.57,63.32,17ZM70,48.75A6.27,6.27,0,0,1,63.75,55H6.25A6.27,6.27,0,0,1,0,48.75v-31a21.84,21.84,0,0,0,3.95,3.4C10.43,25.55,17,30,23.36,34.61,26.64,37,30.7,40,35,40H35c4.26,0,8.32-3,11.6-5.39C53,30,59.57,25.55,66.09,21.13A23,23,0,0,0,70,17.73Z"/></g></g></svg>