<svg xmlns="http://www.w3.org/2000/svg" xmlns:xlink="http://www.w3.org/1999/xlink" viewBox="0 0 3516 2256.66"><defs><style>.cls-1,.cls-75,.cls-76{fill:none;}.cls-2{isolation:isolate;}.cls-3,.cls-31,.cls-4,.cls-5,.cls-56{opacity:0.25;}.cls-3{fill:url(#radial-gradient);}.cls-4{fill:url(#radial-gradient-2);}.cls-6{fill:url(#linear-gradient);}.cls-7{fill:url(#linear-gradient-2);}.cls-8{fill:url(#linear-gradient-3);}.cls-9{fill:url(#linear-gradient-4);}.cls-10{fill:url(#linear-gradient-5);}.cls-11{fill:url(#linear-gradient-6);}.cls-12,.cls-27,.cls-58,.cls-74{mix-blend-mode:overlay;}.cls-13{fill:url(#linear-gradient-7);}.cls-14{opacity:0.28;}.cls-15{fill:url(#linear-gradient-8);}.cls-16{opacity:0.32;}.cls-17{fill:url(#linear-gradient-9);}.cls-18{opacity:0.35;}.cls-19{fill:url(#linear-gradient-10);}.cls-20{opacity:0.38;}.cls-21{fill:url(#linear-gradient-11);}.cls-22{opacity:0.42;}.cls-23{fill:url(#linear-gradient-12);}.cls-24{opacity:0.45;}.cls-25{fill:url(#linear-gradient-13);}.cls-26{fill:url(#linear-gradient-14);}.cls-27{opacity:0.42;}.cls-28{fill:url(#linear-gradient-15);}.cls-29{opacity:0.6;mix-blend-mode:multiply;}.cls-30{fill:url(#linear-gradient-16);}.cls-31{fill:url(#radial-gradient-3);}.cls-32{fill:url(#linear-gradient-17);}.cls-33{fill:url(#linear-gradient-18);}.cls-34{fill:url(#linear-gradient-19);}.cls-35{fill:url(#linear-gradient-20);}.cls-36{fill:url(#linear-gradient-21);}.cls-37{fill:url(#linear-gradient-22);}.cls-38{fill:url(#linear-gradient-23);}.cls-39{fill:url(#linear-gradient-24);}.cls-40{fill:url(#linear-gradient-25);}.cls-41{fill:url(#linear-gradient-26);}.cls-42{fill:url(#linear-gradient-27);}.cls-43{fill:url(#linear-gradient-28);}.cls-44{fill:url(#linear-gradient-29);}.cls-45{fill:url(#linear-gradient-30);}.cls-46{fill:url(#linear-gradient-31);}.cls-47{fill:url(#linear-gradient-32);}.cls-48{fill:url(#linear-gradient-33);}.cls-49{fill:url(#linear-gradient-34);}.cls-50{fill:url(#linear-gradient-35);}.cls-51{fill:url(#linear-gradient-36);}.cls-52{fill:url(#linear-gradient-37);}.cls-53{fill:url(#linear-gradient-38);}.cls-54{fill:url(#linear-gradient-39);}.cls-55{fill:url(#linear-gradient-40);}.cls-56{fill:url(#linear-gradient-41);}.cls-57{fill:url(#linear-gradient-42);}.cls-58{opacity:0.23;}.cls-59{fill:url(#linear-gradient-43);}.cls-60,.cls-61,.cls-62,.cls-63,.cls-64,.cls-67,.cls-73{stroke-linecap:round;stroke-linejoin:round;}.cls-60,.cls-62,.cls-64,.cls-67,.cls-73{stroke-width:1.5px;}.cls-60{fill:url(#linear-gradient-44);stroke:url(#linear-gradient-45);}.cls-61,.cls-63{stroke-width:2px;}.cls-61{fill:url(#linear-gradient-46);stroke:url(#linear-gradient-47);}.cls-62{fill:url(#linear-gradient-48);stroke:url(#linear-gradient-49);}.cls-63{fill:url(#linear-gradient-50);stroke:url(#linear-gradient-51);}.cls-64{fill:url(#linear-gradient-52);stroke:url(#linear-gradient-53);}.cls-65{fill:url(#linear-gradient-54);}.cls-66{fill:url(#linear-gradient-55);}.cls-67{fill:url(#linear-gradient-56);stroke:url(#linear-gradient-57);}.cls-68{fill:url(#linear-gradient-58);}.cls-69{fill:url(#linear-gradient-59);}.cls-70{fill:url(#linear-gradient-60);}.cls-71{fill:url(#linear-gradient-61);}.cls-72{fill:url(#linear-gradient-62);}.cls-73{fill:url(#linear-gradient-63);stroke:url(#linear-gradient-64);}.cls-74{opacity:0.49;}.cls-75,.cls-76{stroke:#fff;stroke-miterlimit:10;}.cls-76{stroke-width:0.81px;}.cls-77{fill:url(#linear-gradient-65);}.cls-78{clip-path:url(#clip-path);}.cls-79{fill:#fff;fill-rule:evenodd;}</style><radialGradient id="radial-gradient" cx="2366" cy="1164.61" r="1064.73" gradientUnits="userSpaceOnUse"><stop offset="0" stop-color="#ffecaa"/><stop offset="0.58" stop-color="#2dccd3"/><stop offset="1" stop-color="#0097a9"/></radialGradient><radialGradient id="radial-gradient-2" cx="1150" cy="1164.61" r="1064.73" xlink:href="#radial-gradient"/><linearGradient id="linear-gradient" x1="2804.05" y1="2136.61" x2="2804.05" y2="936.61" gradientUnits="userSpaceOnUse"><stop offset="0" stop-color="#ffc371"/><stop offset="1" stop-color="#ff5f6d"/></linearGradient><linearGradient id="linear-gradient-2" x1="2036.12" y1="2136.61" x2="2036.12" y2="326.57" xlink:href="#linear-gradient"/><linearGradient id="linear-gradient-3" x1="2014.96" y1="2136.61" x2="2014.96" y2="415.61" xlink:href="#linear-gradient"/><linearGradient id="linear-gradient-4" x1="2008.69" y1="2136.61" x2="2008.69" y2="281.83" xlink:href="#linear-gradient"/><linearGradient id="linear-gradient-5" x1="2767.56" y1="2136.61" x2="2767.56" y2="936.61" xlink:href="#linear-gradient"/><linearGradient id="linear-gradient-6" x1="2747.27" y1="1978.88" x2="2747.27" y2="689.51" gradientTransform="translate(5.49 154.65) rotate(0.05)" xlink:href="#linear-gradient"/><linearGradient id="linear-gradient-7" x1="952.65" y1="1333.31" x2="3636.03" y2="1333.31" gradientTransform="matrix(1.29, -0.3, 0.42, 0.95, -1407.63, 841.29)" gradientUnits="userSpaceOnUse"><stop offset="0" stop-color="#0097a9"/><stop offset="0.42" stop-color="#2dccd3"/><stop offset="1" stop-color="#ffecaa"/></linearGradient><linearGradient id="linear-gradient-8" x1="1186.8" y1="1125.41" x2="3536.48" y2="1125.41" gradientTransform="matrix(1.24, -0.3, 0.4, 0.95, -1191.32, 844.34)" xlink:href="#linear-gradient-7"/><linearGradient id="linear-gradient-9" x1="1507.83" y1="939.12" x2="3497.04" y2="939.12" gradientTransform="matrix(1.18, -0.3, 0.38, 0.95, -975.02, 847.4)" xlink:href="#linear-gradient-7"/><linearGradient id="linear-gradient-10" x1="1675.8" y1="860.69" x2="3490.51" y2="860.69" gradientTransform="matrix(1.12, -0.3, 0.36, 0.95, -758.71, 850.46)" xlink:href="#linear-gradient-7"/><linearGradient id="linear-gradient-11" x1="1773.94" y1="847.76" x2="3493.38" y2="847.76" gradientTransform="matrix(1.07, -0.3, 0.34, 0.95, -542.41, 853.52)" xlink:href="#linear-gradient-7"/><linearGradient id="linear-gradient-12" x1="1871.62" y1="822.1" x2="3565.68" y2="822.1" gradientTransform="matrix(1.01, -0.3, 0.32, 0.95, -326.1, 856.57)" xlink:href="#linear-gradient-7"/><linearGradient id="linear-gradient-13" x1="1967.93" y1="832.94" x2="3696.41" y2="832.94" gradientTransform="translate(-109.8 859.63) rotate(-17.61)" xlink:href="#linear-gradient-7"/><linearGradient id="linear-gradient-14" x1="1911.54" y1="1989.08" x2="1911.54" y2="760.16" gradientTransform="translate(112.21 144.28) rotate(0.46)" xlink:href="#linear-gradient"/><linearGradient id="linear-gradient-15" x1="1885.99" y1="2017.03" x2="1885.99" y2="817.04" gradientTransform="matrix(1, 0, 0, 1, 124.33, 127.53)" xlink:href="#linear-gradient-7"/><linearGradient id="linear-gradient-16" x1="3146.01" y1="2132.33" x2="3146.01" y2="1292.68" xlink:href="#linear-gradient"/><radialGradient id="radial-gradient-3" cx="2363.57" cy="1169.61" r="868.74" gradientTransform="matrix(-1, 0, 0, 1, 3609.39, 0)" xlink:href="#radial-gradient"/><linearGradient id="linear-gradient-17" x1="2403.05" y1="2141.61" x2="2403.05" y2="941.61" gradientTransform="matrix(-1, 0, 0, 1, 3609.39, 0)" xlink:href="#linear-gradient"/><linearGradient id="linear-gradient-18" x1="1635.12" y1="2141.61" x2="1635.12" y2="331.57" gradientTransform="matrix(-1, 0, 0, 1, 3609.39, 0)" xlink:href="#linear-gradient"/><linearGradient id="linear-gradient-19" x1="1613.96" y1="2141.61" x2="1613.96" y2="420.61" gradientTransform="matrix(-1, 0, 0, 1, 3609.39, 0)" xlink:href="#linear-gradient"/><linearGradient id="linear-gradient-20" x1="668.34" y1="1241.49" x2="3351.71" y2="1241.49" gradientTransform="matrix(-1.29, -0.3, -0.42, 0.95, 5017.01, 841.29)" xlink:href="#linear-gradient-7"/><linearGradient id="linear-gradient-21" x1="557.72" y1="1228.95" x2="3352" y2="1228.95" gradientTransform="matrix(-1.24, -0.3, -0.4, 0.95, 4800.71, 844.34)" xlink:href="#linear-gradient-7"/><linearGradient id="linear-gradient-22" x1="436.47" y1="1217.13" x2="3351.14" y2="1217.13" gradientTransform="matrix(-1.18, -0.3, -0.38, 0.95, 4584.4, 847.4)" xlink:href="#linear-gradient-7"/><linearGradient id="linear-gradient-23" x1="302.96" y1="1206.12" x2="3348.96" y2="1206.12" gradientTransform="matrix(-1.12, -0.3, -0.36, 0.95, 4368.1, 850.46)" xlink:href="#linear-gradient-7"/><linearGradient id="linear-gradient-24" x1="155.37" y1="1195.64" x2="3345.39" y2="1195.64" gradientTransform="matrix(-1.07, -0.3, -0.34, 0.95, 4151.79, 853.52)" xlink:href="#linear-gradient-7"/><linearGradient id="linear-gradient-25" x1="-8.86" y1="1186.28" x2="3340.02" y2="1186.28" gradientTransform="matrix(-1.01, -0.3, -0.32, 0.95, 3935.49, 856.57)" xlink:href="#linear-gradient-7"/><linearGradient id="linear-gradient-26" x1="-192.71" y1="1150.71" x2="3332.54" y2="1150.71" gradientTransform="matrix(-0.95, -0.3, -0.3, 0.95, 3719.18, 859.63)" xlink:href="#linear-gradient-7"/><linearGradient id="linear-gradient-27" x1="2005.73" y1="2141.61" x2="2005.73" y2="452.73" xlink:href="#linear-gradient"/><linearGradient id="linear-gradient-28" x1="1607.69" y1="2141.61" x2="1607.69" y2="286.83" gradientTransform="matrix(-1, 0, 0, 1, 3609.39, 0)" xlink:href="#linear-gradient"/><linearGradient id="linear-gradient-29" x1="669.44" y1="1242.88" x2="3352.81" y2="1242.88" gradientTransform="matrix(-1.29, -0.25, -0.42, 0.82, 5019.64, 1026.74)" xlink:href="#linear-gradient-7"/><linearGradient id="linear-gradient-30" x1="559.36" y1="1230.25" x2="3353.63" y2="1230.25" gradientTransform="matrix(-1.24, -0.25, -0.4, 0.82, 4803.33, 1029.79)" xlink:href="#linear-gradient-7"/><linearGradient id="linear-gradient-31" x1="438.18" y1="1218.19" x2="3352.85" y2="1218.19" gradientTransform="matrix(-1.18, -0.25, -0.38, 0.82, 4587.02, 1032.85)" xlink:href="#linear-gradient-7"/><linearGradient id="linear-gradient-32" x1="304.75" y1="1206.98" x2="3350.75" y2="1206.98" gradientTransform="matrix(-1.12, -0.25, -0.36, 0.82, 4370.72, 1035.91)" xlink:href="#linear-gradient-7"/><linearGradient id="linear-gradient-33" x1="157.09" y1="1196.73" x2="3347.11" y2="1196.73" gradientTransform="matrix(-1.07, -0.25, -0.34, 0.82, 4154.41, 1038.97)" xlink:href="#linear-gradient-7"/><linearGradient id="linear-gradient-34" x1="-7.2" y1="1187.61" x2="3341.69" y2="1187.61" gradientTransform="matrix(-1.01, -0.26, -0.32, 0.82, 3938.11, 1042.02)" xlink:href="#linear-gradient-7"/><linearGradient id="linear-gradient-35" x1="-191.11" y1="1152.27" x2="3334.14" y2="1152.27" gradientTransform="matrix(-0.95, -0.26, -0.3, 0.82, 3721.8, 1045.08)" xlink:href="#linear-gradient-7"/><linearGradient id="linear-gradient-36" x1="2366.56" y1="2141.61" x2="2366.56" y2="941.61" gradientTransform="matrix(-1, 0, 0, 1, 3609.39, 0)" xlink:href="#linear-gradient"/><linearGradient id="linear-gradient-37" x1="2346.28" y1="1984.23" x2="2346.28" y2="694.86" gradientTransform="matrix(-1, 0, 0, 1, 3603.9, 154.65)" xlink:href="#linear-gradient"/><linearGradient id="linear-gradient-38" x1="2006.34" y1="2141.61" x2="2006.34" y2="1330.51" xlink:href="#linear-gradient"/><linearGradient id="linear-gradient-39" x1="1510.59" y1="1997.32" x2="1510.59" y2="768.39" gradientTransform="matrix(-1, 0.01, 0.01, 1, 3497.17, 144.28)" xlink:href="#linear-gradient"/><linearGradient id="linear-gradient-40" x1="1473.99" y1="2021.07" x2="1473.99" y2="821.07" gradientTransform="matrix(-1, 0, 0, 1, 3485.06, 127.53)" xlink:href="#linear-gradient-7"/><linearGradient id="linear-gradient-41" x1="1978.55" y1="2141.61" x2="1978.55" y2="1515.34" xlink:href="#linear-gradient"/><linearGradient id="linear-gradient-42" x1="717.2" y1="1601.56" x2="717.2" y2="1601.56" gradientTransform="matrix(1, 0, 0, 1, 0, 0)" xlink:href="#linear-gradient-7"/><linearGradient id="linear-gradient-43" x1="1974.26" y1="2141.61" x2="1974.26" y2="1874.16" gradientTransform="matrix(1, 0, 0, 1, 0, 0)" xlink:href="#linear-gradient-7"/><linearGradient id="linear-gradient-44" x1="836.99" y1="778.69" x2="1517.5" y2="778.69" xlink:href="#radial-gradient"/><linearGradient id="linear-gradient-45" x1="1177.25" y1="1086.65" x2="1177.25" y2="470.74" gradientUnits="userSpaceOnUse"><stop offset="0" stop-color="#fff" stop-opacity="0"/><stop offset="1" stop-color="#fff"/></linearGradient><linearGradient id="linear-gradient-46" x1="1244.2" y1="1961.83" x2="1244.2" y2="1395.25" xlink:href="#radial-gradient"/><linearGradient id="linear-gradient-47" x1="1244.2" y1="1962.83" x2="1244.2" y2="1394.25" xlink:href="#linear-gradient-45"/><linearGradient id="linear-gradient-48" x1="2157.18" y1="2094.66" x2="2157.18" y2="1349.81" xlink:href="#radial-gradient"/><linearGradient id="linear-gradient-49" x1="2157.18" y1="2095.41" x2="2157.18" y2="1349.06" xlink:href="#linear-gradient-45"/><linearGradient id="linear-gradient-50" x1="1318.63" y1="1957.66" x2="1318.63" y2="1528.66" xlink:href="#radial-gradient"/><linearGradient id="linear-gradient-51" x1="975.24" y1="1743.16" x2="1662.03" y2="1743.16" xlink:href="#linear-gradient-45"/><linearGradient id="linear-gradient-52" x1="2037" y1="1051.33" x2="2037" y2="597.35" gradientTransform="matrix(1, 0, 0, 1, 0, 0)" xlink:href="#linear-gradient-7"/><linearGradient id="linear-gradient-53" x1="2037" y1="1052.08" x2="2037" y2="596.6" xlink:href="#linear-gradient-45"/><linearGradient id="linear-gradient-54" x1="516.51" y1="1285.19" x2="516.51" y2="1285.11" xlink:href="#radial-gradient"/><linearGradient id="linear-gradient-55" x1="1091.86" y1="2118.66" x2="1091.86" y2="1282.66" xlink:href="#radial-gradient"/><linearGradient id="linear-gradient-56" x1="1124.92" y1="1145.82" x2="1124.92" y2="471.49" gradientTransform="matrix(1, 0, 0, 1, 0, 0)" xlink:href="#linear-gradient-7"/><linearGradient id="linear-gradient-57" x1="1124.92" y1="1146.57" x2="1124.92" y2="470.74" xlink:href="#linear-gradient-45"/><linearGradient id="linear-gradient-58" x1="1335.69" y1="1440.81" x2="1335.69" y2="1440.81" gradientTransform="matrix(1, 0, 0, 1, 0, 0)" xlink:href="#linear-gradient-7"/><linearGradient id="linear-gradient-59" x1="500.17" y1="830.76" x2="1650.87" y2="830.76" gradientTransform="matrix(1, 0, 0, 1, 0, 0)" xlink:href="#linear-gradient-7"/><linearGradient id="linear-gradient-60" x1="1650.9" y1="372.85" x2="1650.9" y2="312.66" gradientTransform="matrix(1, 0, 0, 1, 0, 0)" xlink:href="#linear-gradient-7"/><linearGradient id="linear-gradient-61" x1="1907.79" y1="863.84" x2="2337.67" y2="863.84" gradientTransform="matrix(1, 0, 0, 1, 0, 0)" xlink:href="#linear-gradient-7"/><linearGradient id="linear-gradient-62" x1="1650.67" y1="799.45" x2="2800.17" y2="799.45" gradientTransform="matrix(1, 0, 0, 1, 0, 0)" xlink:href="#linear-gradient-7"/><linearGradient id="linear-gradient-63" x1="2070.67" y1="2094.66" x2="2070.67" y2="1394.55" xlink:href="#radial-gradient"/><linearGradient id="linear-gradient-64" x1="2070.67" y1="2095.41" x2="2070.67" y2="1393.8" xlink:href="#linear-gradient-45"/><linearGradient id="linear-gradient-65" x1="2225.01" y1="2140.47" x2="2225.01" y2="1284.66" xlink:href="#radial-gradient"/><clipPath id="clip-path"><rect class="cls-1" x="1640.4" y="1083.26" width="375" height="426"/></clipPath></defs><title>geolooker</title><g class="cls-2"><g id="Layer_2" data-name="Layer 2"><g id="Layer_1-2" data-name="Layer 1"><path class="cls-3" d="M2366.5,192.61s-110.77,988,1149.5,972.5c0,0-1176.08-92.62-1149.5,971.5,0,0,117.91-995.18-1150.5-971.5C1216,1165.11,2397.64,1252.5,2366.5,192.61Z"/><path class="cls-4" d="M1150.5,192.61s-110.77,988,1149.5,972.5c0,0-1176.08-92.62-1149.5,971.5,0,0,117.91-995.18-1150.5-971.5C0,1165.11,1181.64,1252.5,1150.5,192.61Z"/><g class="cls-5"><path class="cls-6" d="M2092.09,2136.61s136.08-532.19,308.79-571,324.57,98.41,396.68-98.83,90-240.84,258.18-262.7S3209,830.14,3353,1119.11s161.21-182.49,161.21-182.49l1.76,1200Z"/></g><g class="cls-5"><path class="cls-7" d="M556.24,2124.18S688.34,1146.51,943,1090.79,2190.73,1094.23,2297,811.36s284.52,19.14,532.4-12.21,226-536.25,438.27-121.82S3516,326.57,3516,326.57l-8,1810Z"/></g><g class="cls-5"><path class="cls-8" d="M513.91,2124.06S754.6,1289.31,1046,1233.58s1041.54,116.11,1163.19-166.75,45.69-205.43,329.4-236.78,291.13-471.84,534.13-57.41,440.3-357,440.3-357l3,1721Z"/></g><g class="cls-5"><path class="cls-9" d="M518.19,2127.33S412.06,988.6,733.22,913.91s670.08,138.75,804.15-240.38,655.41,74,898.06-79c333.09-209.91,221.18-45,837.57-63.65,190.67-5.76,243-249.09,243-249.09l-1.42,1854.78Z"/></g><g class="cls-5"><path class="cls-10" d="M2019.12,2136.61s143.06-532.19,324.61-571,341.21,98.41,417-98.83,94.65-240.84,271.41-262.7,161.12-373.91,312.52-84.94,169.47-182.49,169.47-182.49l1.85,1200Z"/></g><g class="cls-5"><path class="cls-11" d="M1986,2135.27s146.72-571.7,332.33-613.28,348.65,106,426.31-105.81,97-258.69,277.66-282,165-401.61,319.51-91,173.39-195.93,173.39-195.93l.76,1289.37Z"/></g><g class="cls-12"><g class="cls-5"><path class="cls-13" d="M511.51,2133.74s229.24-1113.1,505.8-1154.88,516.9,123,635.36-107.22,147.84-281.1,416.83-303,251.07-436.1,476.35-93.14S3516,263.2,3516,263.2l-2.58,1873.42Z"/></g><g class="cls-14"><path class="cls-15" d="M1074.84,1000.14c230.47-34.81,454.68,14.14,582.27-183.79s177.06-217.08,413.7-268S2295.61,145,2511.41,427.53s834.88-238.88,858.2-190.38,25.15,1531.15,25.15,1531.15L890.64,1965.89S844.38,1034.95,1074.84,1000.14Z"/></g><g class="cls-16"><path class="cls-17" d="M1224.49,1023.23c184.37-27.85,392.46-94.73,529.18-260.35S1960,609.8,2164.24,529.81s198.52-370.58,404.85-148.44,699.61-265.44,746.25-168.45,52.87,1188.88,52.87,1188.88L1361.88,1799.85S1040.12,1051.08,1224.49,1023.23Z"/></g><g class="cls-18"><path class="cls-19" d="M1421.51,1049.6c138.28-20.89,330.24-203.6,476.09-336.92S2133.1,623.62,2305,514.57s172.25-337.82,369.11-176.08,564.34-292,634.3-146.52,80.6,846.61,80.6,846.61L1880.49,1637.09S1283.23,1070.48,1421.51,1049.6Z"/></g><g class="cls-20"><path class="cls-21" d="M1629.67,1079.16c92.19-13.92,268-312.47,423-413.49s264.71-25,404.3-163.14,146-305.06,333.36-203.73,429.07-318.57,522.35-124.59S3421,678.56,3421,678.56l-1010.77,799S1537.49,1093.09,1629.67,1079.16Z"/></g><g class="cls-22"><path class="cls-23" d="M1842.08,1111.74c46.09-7,205.81-421.34,369.92-490.06s293.93,39,401.17-128.17,119.7-272.3,297.61-231.37S3204.58-83,3321.18,159.47s136.05,162.07,136.05,162.07l-513,999.44S1796,1118.7,1842.08,1111.74Z"/></g><g class="cls-24"><path class="cls-25" d="M2056.54,1179.78s143.59-530.22,316.83-566.62,323.15,103,398-93.21,93.43-239.54,261.87-259,158.54-371.71,298.46-80.73S3495.5,0,3495.5,0l-15.2,1199.91Z"/></g></g><g class="cls-5"><path class="cls-26" d="M507.45,2136.61s983.66-918,1156.67-955.42,974.3,253.34,1048,56.7,174.94-21.75,343.26-42.25,156.28-372.66,298-82.54S3516,931.91,3516,931.91l-7.91,1200Z"/></g><g class="cls-27"><path class="cls-28" d="M514.09,2133.74s248.15-436.41,420.77-475.67,1488-40.31,1559.67-237.71,390.92-193,559-215.23,152.39-374.27,297.09-85.64,160.78-182.87,160.78-182.87l4.58,1200Z"/></g><g class="cls-29"><path class="cls-30" d="M3308.49,1770.72s-497.59-520.56-508.32-475.25,233.4,366,286.36,367.59c121.31,3.71,405.67,469.26,405.67,469.26Z"/></g><path class="cls-31" d="M1643.89,197.61s110.77,988-1149.5,972.5c0,0,1176.08-92.62,1149.5,971.5,0,0,359.06-876.9,353.28-992C1978.26,773.52,1612.75,1257.5,1643.89,197.61Z"/><g class="cls-5"><path class="cls-32" d="M1918.29,2141.61s-136.08-532.19-308.79-571-324.57,98.41-396.68-98.83-90-240.84-258.18-262.7-153.27-373.91-297.29-84.94S496.15,941.61,496.15,941.61l-1.76,1200Z"/></g><g class="cls-5"><path class="cls-33" d="M3454.14,2129.18s-132.1-977.67-386.71-1033.4-1247.77,3.44-1354.07-279.42S1428.85,835.5,1181,804.16,955,267.91,742.69,682.34s-248.3-350.77-248.3-350.77l8,1810Z"/></g><g class="cls-5"><path class="cls-34" d="M3496.47,2129.06s-240.69-834.76-532.09-890.48S1922.85,1354.7,1801.19,1071.84s-45.69-205.43-329.4-236.78-291.13-471.84-534.13-57.41-440.3-357-440.3-357l-3,1721Z"/></g><g class="cls-12"><g class="cls-5"><path class="cls-35" d="M3503.87,2130.74s-229.24-1113.1-505.8-1154.88-516.9,123-635.36-107.22-147.84-281.1-416.83-303-251.07-436.1-476.35-93.14S499.39,260.2,499.39,260.2L502,2133.61Z"/></g><g class="cls-14"><path class="cls-36" d="M3505.89,2132s-439-1213-698.3-1253.93S2282,1039.95,2170.75,815.39s-138.77-274.17-391-295.66-235.64-425.37-446.7-91.07-835.75-207-835.75-207L502,2133.86Z"/></g><g class="cls-16"><path class="cls-37" d="M3507.91,2133.2s-648.68-1313-890.8-1353S2082.73,981,1978.79,762.14s-129.7-267.25-365.17-288.33-220.22-414.64-417.05-89S495.21,183.19,495.21,183.19L502,2134.11Z"/></g><g class="cls-18"><path class="cls-38" d="M3509.94,2134.39s-858.41-1412.93-1083.3-1452-543.12,239.7-639.8,26.49-120.63-260.32-339.35-281-204.8-403.9-387.4-86.94-567-196.25-567-196.25L502,2134.33Z"/></g><g class="cls-20"><path class="cls-39" d="M3512,2135.13S2443.83,622.26,2236.15,584.06s-551.87,278.6-641.28,71.06-111.57-253.4-313.52-273.68S1092-11.73,923.6,296.57,491,105.67,491,105.67L502,2134.09Z"/></g><g class="cls-22"><path class="cls-40" d="M3514,2135.87S2236.13,523.05,2045.67,485.75s-560.61,317.49-642.76,115.63S1300.42,354.91,1115.22,335s-174-382.44-328.11-82.8S488.95,66.68,488.95,66.68l13,2067.17Z"/></g><g class="cls-24"><path class="cls-41" d="M3516,2136.61S2028.43,423.85,1855.19,387.44,1285.84,743.83,1211,547.64s-93.43-239.54-261.87-259S790.56-83.09,650.63,207.88,486.86,27.69,486.86,27.69L502,2133.61Z"/></g></g><g class="cls-5"><path class="cls-42" d="M504.17,452.73S590,808.94,854.12,824.34s763.67-177.57,955-121.59,345.61-224.39,637.48,175.32,481.06,512,481.06,512l579.68,748.68-3001.91,2.88Z"/></g><g class="cls-5"><path class="cls-43" d="M3492.2,2132.33s106.13-1138.73-215-1213.42S2607.09,1057.66,2473,678.53s-655.41,74-898.06-79c-333.09-209.91-221.18-45-837.57-63.65-190.67-5.76-243-249.09-243-249.09l1.42,1854.78Z"/></g><g class="cls-12"><g class="cls-5"><path class="cls-44" d="M3501.88,2132.62s-226.95-950.74-503.41-985.87-517.13,106.18-635.12-90.32-147.26-239.91-416.19-258.07S1697,426.2,1471,719.74,501.33,540.31,501.33,540.31l-1.27,1600.94Z"/></g><g class="cls-14"><path class="cls-45" d="M3503.37,2133.45s-436.46-1035.72-695.7-1070.12-526,139.44-636.69-52.23-138.2-234-390.38-251.86-234.76-363-446.5-76.91S498.79,507.2,498.79,507.2l.73,1634.05Z"/></g><g class="cls-16"><path class="cls-46" d="M3505.5,2134.28s-646-1120.69-888-1154.37-534.78,172.7-638.26-14.14-129.15-228.11-364.57-245.65-219.36-353.88-416.86-75.2S496.89,474.08,496.89,474.08l2.74,1667.16Z"/></g><g class="cls-18"><path class="cls-47" d="M3507.62,2135.12S2652.15,929.45,2427.34,896.5s-543.6,206-639.83,24S1667.41,698.24,1448.74,681s-204-344.74-387.21-73.5S495,441,495,441l4.75,1700.27Z"/></g><g class="cls-20"><path class="cls-48" d="M3509.75,2135.95S2444.76,845.3,2237.17,813.09s-552.42,239.21-641.4,62-111-216.31-312.95-233.23-188.57-335.6-357.57-71.79S493.09,407.86,493.09,407.86l6.76,1733.38Z"/></g><g class="cls-22"><path class="cls-49" d="M3511.87,2136.78S2237.38,761.16,2047,729.67s-561.25,272.47-643,100.13-102-210.41-287.14-227S943.72,276.32,789,532.7,491.18,374.75,491.18,374.75L500,2141.25Z"/></g><g class="cls-24"><path class="cls-50" d="M3514,2137.61S2030,677,1856.84,646.26,1286.77,952,1212.29,784.48,1119.36,580,951,563.67,793.2,246.35,652.68,495.29s-163.4-153.65-163.4-153.65l10.78,1799.61Z"/></g></g><g class="cls-5"><path class="cls-51" d="M1991.26,2141.61s-143.06-532.19-324.61-571-341.21,98.41-417-98.83S1155,1230.9,978.23,1209s-161.12-373.91-312.52-84.94S496.24,941.61,496.24,941.61l-1.85,1200Z"/></g><g class="cls-5"><path class="cls-52" d="M2024.34,2140.27S1877.62,1568.57,1692,1527s-348.65,106-426.31-105.81-97-258.69-277.66-282-165-401.61-319.51-91S495.15,852.24,495.15,852.24l-.76,1289.37Z"/></g><g class="cls-5"><path class="cls-53" d="M508.48,1330.51s662.3,20.88,603,309.61,712,43.62,712,43.62,365.9-151.74,401.86,76.69,276,314.73,462,306.08,819.87,72.23,819.87,72.23l-3001.91,2.88Z"/></g><g class="cls-5"><path class="cls-54" d="M3502.94,2141.61s-983.66-918-1156.67-955.42-974.3,253.34-1048,56.7-174.94-21.75-343.26-42.25S798.75,828,657.06,1118.1,494.39,936.91,494.39,936.91l7.91,1200Z"/></g><g class="cls-27"><path class="cls-55" d="M3507.29,2138.74s-248.15-436.41-420.77-475.67-1488-40.31-1559.67-237.71-390.92-193-559-215.23-152.39-374.27-297.09-85.64S510,941.62,510,941.62l-1.48,388.89-3.1,811.1Z"/></g><path class="cls-56" d="M502.95,1548.92s458.52-125.64,431.91,109.14,134,283.23,316.46,283.23c223.54,0,602.83-171.13,877.5-180.86,281.43-10,846.63,165,870.64,55.72s206.44,51.67,234,93.94,220.66,219.1,220.66,219.1L505.39,2141.61Z"/><path class="cls-57" d="M717.2,1601.56"/><g class="cls-58"><path class="cls-59" d="M494.39,1917.91s160.78-82.66,222.81-20.74,44.07,195.31,276.57,184.57,590.74-30,762.66-50,252.2-29.38,468.59,0,702.43-16.61,900.45,34.36,328.67,68.69,328.67,68.69l-2948.76,6.82Z"/></g><path class="cls-60" d="M1517.5,892.46s-71.49-12.12-168.33-56.35c-40.06-18.3-85.73-37.45-136.48-65.4C1044.67,678.17,837,471.49,837,471.49L1451.4,1085.9S1509.13,1054.41,1517.5,892.46Z"/><path class="cls-61" d="M1100.17,1833.66c90.5-82.64,239.63-268.79,378.83-331.36,147.31-66.21-178.13-147.82-214.13-83.82,0,0-4.85,119.18-86.36,269.52-47.27,87.17-109.69,177.78-207.14,273.84l10.88-12.11S1061.27,1869.18,1100.17,1833.66Z"/><path class="cls-62" d="M1855.19,1482.55S2092.6,1738.11,2233,1872.48l226.13,222.18S2119.8,1774,2046,1436.22C1998.25,1217.7,1855.19,1482.55,1855.19,1482.55Z"/><path class="cls-63" d="M1402.17,1528.66l-425.93,429s295.19-320,684.79-303.22Z"/><path class="cls-64" d="M1885.83,1051.33s281.59-284.08,451.83-454c0,0-234.5,245.81-492.83,295.11C1606,938,1836,983.06,1836,983.06Z"/><path class="cls-65" d="M500.17,1285.16l32.68,0Q516.68,1285.06,500.17,1285.16Z"/><path class="cls-66" d="M1268.29,1282.66l-.06,3.2-735.38-.67c436.28,3.53,675.77,135.88,732.09,171.26v.54c1.27.61,2.53,1.24,3.79,1.86,6.18,4,9.27,6.23,9.27,6.23a32.34,32.34,0,0,0,3.61.42c221,119,313.85,417.16,313.85,417.16l54.45,236,1-834Z"/><path class="cls-67" d="M1256.17,1145.82l156.68-104.08L837,471.49S999.42,627.1,1114.26,808.74C1212.69,964.42,1261.63,1127.11,1256.17,1145.82Z"/><path class="cls-68" d="M1335.69,1440.81"/><path class="cls-69" d="M1421.42,1284.66h229.46l-.71-598.11.42-313.7c-5.14,144.12-48.37,511.78-345.39,711q-15,8.8-32.06,20.26c-60.37,40.64-190.63,101.19-314.31,131.67-205.3,50.61-458.66,49.37-458.66,49.37,542.52,7.9,835.52,0,835.52,0Z"/><path class="cls-70" d="M1650.67,312.66l-.08,60.19C1651.93,335.08,1650.67,312.66,1650.67,312.66Z"/><path class="cls-71" d="M1907.79,1026.33l127.55,104s40.17-289,302.33-533Z"/><path class="cls-72" d="M1650.87,1284.66l1149.29.5s-884.54,52-1083.63-563.75c-59.43-183.81-65.87-408.75-65.87-408.75Z"/><path class="cls-73" d="M1679.17,1657.66l91-263.11,692,700.11S2139.85,1721.38,1679.17,1657.66Z"/><g class="cls-74"><line class="cls-75" x1="1650.17" y1="1284.66" x2="836.99" y2="471.49"/><line class="cls-76" x1="1677.11" y1="1258.19" x2="868.55" y2="502.5"/><line class="cls-76" x1="1703.55" y1="1231.75" x2="899.84" y2="533.78"/><line class="cls-76" x1="1729.99" y1="1205.31" x2="931.12" y2="565.07"/><line class="cls-76" x1="1756.43" y1="1178.87" x2="962.41" y2="596.35"/><line class="cls-76" x1="1782.87" y1="1152.43" x2="993.69" y2="627.64"/><line class="cls-76" x1="1809.3" y1="1126" x2="1024.98" y2="658.92"/><line class="cls-76" x1="1835.74" y1="1099.56" x2="1056.26" y2="690.21"/><line class="cls-76" x1="1862.18" y1="1073.12" x2="1087.55" y2="721.49"/><line class="cls-76" x1="1888.62" y1="1046.68" x2="1118.83" y2="752.78"/><line class="cls-76" x1="1915.06" y1="1020.24" x2="1150.12" y2="784.06"/><line class="cls-76" x1="1941.49" y1="993.81" x2="1181.4" y2="815.35"/><line class="cls-76" x1="1967.93" y1="967.37" x2="1212.69" y2="846.63"/><line class="cls-76" x1="1994.37" y1="940.93" x2="1243.97" y2="877.92"/><line class="cls-76" x1="2020.81" y1="914.49" x2="1275.26" y2="909.2"/><line class="cls-76" x1="2047.25" y1="888.05" x2="1306.54" y2="940.49"/><line class="cls-76" x1="2073.68" y1="861.62" x2="1337.83" y2="971.77"/><line class="cls-76" x1="2100.12" y1="835.18" x2="1369.11" y2="1003.06"/><line class="cls-76" x1="2126.56" y1="808.74" x2="1400.4" y2="1034.34"/><line class="cls-76" x1="2153" y1="782.3" x2="1431.68" y2="1065.63"/><line class="cls-76" x1="2179.44" y1="755.86" x2="1462.97" y2="1096.91"/><line class="cls-76" x1="2205.87" y1="729.43" x2="1494.25" y2="1128.2"/><line class="cls-76" x1="2232.31" y1="702.99" x2="1525.54" y2="1159.48"/><line class="cls-76" x1="2258.75" y1="676.55" x2="1556.82" y2="1190.77"/><line class="cls-76" x1="2285.19" y1="650.11" x2="1588.11" y2="1222.05"/><line class="cls-76" x1="2311.63" y1="623.67" x2="1619.39" y2="1253.34"/><line class="cls-75" x1="2338.18" y1="597.35" x2="1650.87" y2="1284.66"/></g><g class="cls-74"><line class="cls-75" x1="1650.17" y1="1284.66" x2="2463.34" y2="2097.83"/><line class="cls-76" x1="1624.08" y1="1310.75" x2="2432.64" y2="2066.43"/><line class="cls-76" x1="1597.64" y1="1337.18" x2="2401.36" y2="2035.15"/><line class="cls-76" x1="1571.21" y1="1363.62" x2="2370.07" y2="2003.86"/><line class="cls-76" x1="1544.77" y1="1390.06" x2="2338.79" y2="1972.58"/><line class="cls-76" x1="1518.33" y1="1416.5" x2="2307.5" y2="1941.29"/><line class="cls-76" x1="1491.89" y1="1442.94" x2="2276.22" y2="1910.01"/><line class="cls-76" x1="1465.45" y1="1469.37" x2="2244.93" y2="1878.72"/><line class="cls-76" x1="1439.02" y1="1495.81" x2="2213.65" y2="1847.44"/><line class="cls-76" x1="1412.58" y1="1522.25" x2="2182.36" y2="1816.15"/><line class="cls-76" x1="1386.14" y1="1548.69" x2="2151.08" y2="1784.87"/><line class="cls-76" x1="1359.7" y1="1575.13" x2="2119.8" y2="1753.58"/><line class="cls-76" x1="1333.26" y1="1601.56" x2="2088.51" y2="1722.3"/><line class="cls-76" x1="1306.83" y1="1628" x2="2057.23" y2="1691.01"/><line class="cls-76" x1="1280.39" y1="1654.44" x2="2025.94" y2="1659.73"/><line class="cls-76" x1="1253.95" y1="1680.88" x2="1994.66" y2="1628.44"/><line class="cls-76" x1="1227.51" y1="1707.32" x2="1963.37" y2="1597.16"/><line class="cls-76" x1="1201.07" y1="1733.75" x2="1932.09" y2="1565.87"/><line class="cls-76" x1="1174.64" y1="1760.19" x2="1900.8" y2="1534.59"/><line class="cls-76" x1="1148.2" y1="1786.63" x2="1869.52" y2="1503.3"/><line class="cls-76" x1="1121.76" y1="1813.07" x2="1838.23" y2="1472.02"/><line class="cls-76" x1="1095.32" y1="1839.51" x2="1806.95" y2="1440.73"/><line class="cls-76" x1="1068.88" y1="1865.94" x2="1775.66" y2="1409.45"/><line class="cls-76" x1="1042.45" y1="1892.38" x2="1744.38" y2="1378.16"/><line class="cls-76" x1="1016.01" y1="1918.82" x2="1713.09" y2="1346.88"/><line class="cls-76" x1="989.57" y1="1945.26" x2="1681.81" y2="1315.59"/><line class="cls-75" x1="962.86" y1="1971.26" x2="1650.17" y2="1283.95"/></g><g class="cls-74"><line class="cls-75" x1="1650.17" y1="1284.66" x2="836.99" y2="471.49"/><line class="cls-76" x1="1624.32" y1="1310.98" x2="868.63" y2="502.42"/><line class="cls-76" x1="1597.88" y1="1337.42" x2="899.92" y2="533.7"/><line class="cls-76" x1="1571.44" y1="1363.86" x2="931.2" y2="564.99"/><line class="cls-76" x1="1545" y1="1390.3" x2="962.49" y2="596.27"/><line class="cls-76" x1="1518.57" y1="1416.73" x2="993.77" y2="627.56"/><line class="cls-76" x1="1492.13" y1="1443.17" x2="1025.06" y2="658.84"/><line class="cls-76" x1="1465.69" y1="1469.61" x2="1056.34" y2="690.13"/><line class="cls-76" x1="1439.25" y1="1496.05" x2="1087.63" y2="721.41"/><line class="cls-76" x1="1412.81" y1="1522.49" x2="1118.91" y2="752.7"/><line class="cls-76" x1="1386.38" y1="1548.92" x2="1150.2" y2="783.98"/><line class="cls-76" x1="1359.94" y1="1575.36" x2="1181.48" y2="815.27"/><line class="cls-76" x1="1333.5" y1="1601.8" x2="1212.77" y2="846.55"/><line class="cls-76" x1="1307.06" y1="1628.24" x2="1244.05" y2="877.84"/><line class="cls-76" x1="1280.62" y1="1654.68" x2="1275.34" y2="909.12"/><line class="cls-76" x1="1254.19" y1="1681.11" x2="1306.62" y2="940.41"/><line class="cls-76" x1="1227.75" y1="1707.55" x2="1337.91" y2="971.69"/><line class="cls-76" x1="1201.31" y1="1733.99" x2="1369.19" y2="1002.98"/><line class="cls-76" x1="1174.87" y1="1760.43" x2="1400.48" y2="1034.26"/><line class="cls-76" x1="1148.43" y1="1786.87" x2="1431.76" y2="1065.55"/><line class="cls-76" x1="1122" y1="1813.3" x2="1463.05" y2="1096.83"/><line class="cls-76" x1="1095.56" y1="1839.74" x2="1494.33" y2="1128.12"/><line class="cls-76" x1="1069.12" y1="1866.18" x2="1525.62" y2="1159.4"/><line class="cls-76" x1="1042.68" y1="1892.62" x2="1556.9" y2="1190.69"/><line class="cls-76" x1="1016.24" y1="1919.06" x2="1588.19" y2="1221.97"/><line class="cls-76" x1="989.81" y1="1945.49" x2="1619.47" y2="1253.26"/><line class="cls-75" x1="963.57" y1="1971.97" x2="1650.87" y2="1284.66"/></g><g class="cls-74"><line class="cls-75" x1="1651.48" y1="1285.99" x2="2464.65" y2="2099.16"/><line class="cls-76" x1="1676.88" y1="1257.95" x2="2432.56" y2="2066.51"/><line class="cls-76" x1="1703.32" y1="1231.51" x2="2401.28" y2="2035.23"/><line class="cls-76" x1="1729.75" y1="1205.07" x2="2369.99" y2="2003.94"/><line class="cls-76" x1="1756.19" y1="1178.64" x2="2338.71" y2="1972.66"/><line class="cls-76" x1="1782.63" y1="1152.2" x2="2307.42" y2="1941.37"/><line class="cls-76" x1="1809.07" y1="1125.76" x2="2276.14" y2="1910.09"/><line class="cls-76" x1="1835.51" y1="1099.32" x2="2244.85" y2="1878.8"/><line class="cls-76" x1="1861.94" y1="1072.88" x2="2213.57" y2="1847.52"/><line class="cls-76" x1="1888.38" y1="1046.45" x2="2182.28" y2="1816.23"/><line class="cls-76" x1="1914.82" y1="1020.01" x2="2151" y2="1784.95"/><line class="cls-76" x1="1941.26" y1="993.57" x2="2119.71" y2="1753.66"/><line class="cls-76" x1="1967.7" y1="967.13" x2="2088.43" y2="1722.38"/><line class="cls-76" x1="1994.13" y1="940.69" x2="2057.14" y2="1691.09"/><line class="cls-76" x1="2020.57" y1="914.26" x2="2025.86" y2="1659.81"/><line class="cls-76" x1="2047.01" y1="887.82" x2="1994.57" y2="1628.52"/><line class="cls-76" x1="2073.45" y1="861.38" x2="1963.29" y2="1597.24"/><line class="cls-76" x1="2099.89" y1="834.94" x2="1932.01" y2="1565.95"/><line class="cls-76" x1="2126.32" y1="808.5" x2="1900.72" y2="1534.67"/><line class="cls-76" x1="2152.76" y1="782.07" x2="1869.44" y2="1503.38"/><line class="cls-76" x1="2179.2" y1="755.63" x2="1838.15" y2="1472.1"/><line class="cls-76" x1="2205.64" y1="729.19" x2="1806.87" y2="1440.81"/><line class="cls-76" x1="2232.08" y1="702.75" x2="1775.58" y2="1409.53"/><line class="cls-76" x1="2258.51" y1="676.31" x2="1744.3" y2="1378.24"/><line class="cls-76" x1="2284.95" y1="649.88" x2="1713.01" y2="1346.96"/><line class="cls-76" x1="2311.39" y1="623.44" x2="1681.73" y2="1315.67"/><line class="cls-75" x1="2337.47" y1="596.65" x2="1650.17" y2="1283.95"/></g><path class="cls-77" d="M2800.17,1285.16l-1149.29-.5-1,855.81s9.91-353.84,267.72-591.78C2103.75,1376.86,2434.15,1291.51,2800.17,1285.16Z"/><g class="cls-74"><line class="cls-75" x1="1650.17" y1="1285.16" x2="500.17" y2="1285.16"/><line class="cls-76" x1="1650.5" y1="1247.39" x2="544.41" y2="1284.77"/><line class="cls-76" x1="1650.5" y1="1210" x2="588.65" y2="1284.77"/><line class="cls-76" x1="1650.5" y1="1172.61" x2="632.9" y2="1284.77"/><line class="cls-76" x1="1650.5" y1="1135.22" x2="677.14" y2="1284.77"/><line class="cls-76" x1="1650.5" y1="1097.83" x2="721.39" y2="1284.77"/><line class="cls-76" x1="1650.5" y1="1060.44" x2="765.63" y2="1284.77"/><line class="cls-76" x1="1650.5" y1="1023.05" x2="809.87" y2="1284.77"/><line class="cls-76" x1="1650.5" y1="985.66" x2="854.12" y2="1284.77"/><line class="cls-76" x1="1650.5" y1="948.27" x2="898.36" y2="1284.77"/><line class="cls-76" x1="1650.5" y1="910.88" x2="942.6" y2="1284.77"/><line class="cls-76" x1="1650.5" y1="873.5" x2="986.85" y2="1284.77"/><line class="cls-76" x1="1650.5" y1="836.11" x2="1031.09" y2="1284.77"/><line class="cls-76" x1="1650.5" y1="798.72" x2="1075.33" y2="1284.77"/><line class="cls-76" x1="1650.5" y1="761.33" x2="1119.58" y2="1284.77"/><line class="cls-76" x1="1650.5" y1="723.94" x2="1163.82" y2="1284.77"/><line class="cls-76" x1="1650.5" y1="686.55" x2="1208.06" y2="1284.77"/><line class="cls-76" x1="1650.5" y1="649.16" x2="1252.31" y2="1284.77"/><line class="cls-76" x1="1650.5" y1="611.77" x2="1296.55" y2="1284.77"/><line class="cls-76" x1="1650.5" y1="574.38" x2="1340.8" y2="1284.77"/><line class="cls-76" x1="1650.5" y1="537" x2="1385.04" y2="1284.77"/><line class="cls-76" x1="1650.5" y1="499.61" x2="1429.28" y2="1284.77"/><line class="cls-76" x1="1650.5" y1="462.22" x2="1473.53" y2="1284.77"/><line class="cls-76" x1="1650.5" y1="424.83" x2="1517.77" y2="1284.77"/><line class="cls-76" x1="1650.5" y1="387.44" x2="1562.01" y2="1284.77"/><line class="cls-76" x1="1650.5" y1="350.05" x2="1606.26" y2="1284.77"/><line class="cls-75" x1="1650.67" y1="312.66" x2="1650.67" y2="1284.66"/></g><g class="cls-74"><line class="cls-75" x1="1650.17" y1="1285.16" x2="2800.17" y2="1285.16"/><line class="cls-76" x1="1650.17" y1="1322.05" x2="2756.26" y2="1284.66"/><line class="cls-76" x1="1650.17" y1="1359.44" x2="2712.01" y2="1284.66"/><line class="cls-76" x1="1650.17" y1="1396.83" x2="2667.77" y2="1284.66"/><line class="cls-76" x1="1650.17" y1="1434.22" x2="2623.53" y2="1284.66"/><line class="cls-76" x1="1650.17" y1="1471.61" x2="2579.28" y2="1284.66"/><line class="cls-76" x1="1650.17" y1="1509" x2="2535.04" y2="1284.66"/><line class="cls-76" x1="1650.17" y1="1546.38" x2="2490.8" y2="1284.66"/><line class="cls-76" x1="1650.17" y1="1583.77" x2="2446.55" y2="1284.66"/><line class="cls-76" x1="1650.17" y1="1621.16" x2="2402.31" y2="1284.66"/><line class="cls-76" x1="1650.17" y1="1658.55" x2="2358.06" y2="1284.66"/><line class="cls-76" x1="1650.17" y1="1695.94" x2="2313.82" y2="1284.66"/><line class="cls-76" x1="1650.17" y1="1733.33" x2="2269.58" y2="1284.66"/><line class="cls-76" x1="1650.17" y1="1770.72" x2="2225.33" y2="1284.66"/><line class="cls-76" x1="1650.17" y1="1808.11" x2="2181.09" y2="1284.66"/><line class="cls-76" x1="1650.17" y1="1845.5" x2="2136.85" y2="1284.66"/><line class="cls-76" x1="1650.17" y1="1882.88" x2="2092.6" y2="1284.66"/><line class="cls-76" x1="1650.17" y1="1920.27" x2="2048.36" y2="1284.66"/><line class="cls-76" x1="1650.17" y1="1957.66" x2="2004.12" y2="1284.66"/><line class="cls-76" x1="1650.17" y1="1995.05" x2="1959.87" y2="1284.66"/><line class="cls-76" x1="1650.17" y1="2032.44" x2="1915.63" y2="1284.66"/><line class="cls-76" x1="1650.17" y1="2069.83" x2="1871.39" y2="1284.66"/><line class="cls-76" x1="1650.17" y1="2107.22" x2="1827.14" y2="1284.66"/><line class="cls-76" x1="1650.17" y1="2144.61" x2="1782.9" y2="1284.66"/><line class="cls-76" x1="1650.17" y1="2182" x2="1738.65" y2="1284.66"/><line class="cls-76" x1="1650.17" y1="2219.39" x2="1694.41" y2="1284.66"/><line class="cls-75" x1="1649.67" y1="2256.66" x2="1649.67" y2="1284.66"/></g><g class="cls-74"><line class="cls-75" x1="1650.17" y1="1285.16" x2="500.17" y2="1285.16"/><line class="cls-76" x1="1650.5" y1="1322.05" x2="544.41" y2="1284.66"/><line class="cls-76" x1="1650.5" y1="1359.44" x2="588.65" y2="1284.66"/><line class="cls-76" x1="1650.5" y1="1396.83" x2="632.9" y2="1284.66"/><line class="cls-76" x1="1650.5" y1="1434.22" x2="677.14" y2="1284.66"/><line class="cls-76" x1="1650.5" y1="1471.61" x2="721.39" y2="1284.66"/><line class="cls-76" x1="1650.5" y1="1509" x2="765.63" y2="1284.66"/><line class="cls-76" x1="1650.5" y1="1546.38" x2="809.87" y2="1284.66"/><line class="cls-76" x1="1650.5" y1="1583.77" x2="854.12" y2="1284.66"/><line class="cls-76" x1="1650.5" y1="1621.16" x2="898.36" y2="1284.66"/><line class="cls-76" x1="1650.5" y1="1658.55" x2="942.6" y2="1284.66"/><line class="cls-76" x1="1650.5" y1="1695.94" x2="986.85" y2="1284.66"/><line class="cls-76" x1="1650.5" y1="1733.33" x2="1031.09" y2="1284.66"/><line class="cls-76" x1="1650.5" y1="1770.72" x2="1075.33" y2="1284.66"/><line class="cls-76" x1="1650.5" y1="1808.11" x2="1119.58" y2="1284.66"/><line class="cls-76" x1="1650.5" y1="1845.5" x2="1163.82" y2="1284.66"/><line class="cls-76" x1="1650.5" y1="1882.88" x2="1208.06" y2="1284.66"/><line class="cls-76" x1="1650.5" y1="1920.27" x2="1252.31" y2="1284.66"/><line class="cls-76" x1="1650.5" y1="1957.66" x2="1296.55" y2="1284.66"/><line class="cls-76" x1="1650.5" y1="1995.05" x2="1340.8" y2="1284.66"/><line class="cls-76" x1="1650.5" y1="2032.44" x2="1385.04" y2="1284.66"/><line class="cls-76" x1="1650.5" y1="2069.83" x2="1429.28" y2="1284.66"/><line class="cls-76" x1="1650.5" y1="2107.22" x2="1473.53" y2="1284.66"/><line class="cls-76" x1="1650.5" y1="2144.61" x2="1517.77" y2="1284.66"/><line class="cls-76" x1="1650.5" y1="2182" x2="1562.01" y2="1284.66"/><line class="cls-76" x1="1650.5" y1="2219.39" x2="1606.26" y2="1284.66"/><line class="cls-75" x1="1650.67" y1="2256.66" x2="1650.67" y2="1284.66"/></g><g class="cls-74"><line class="cls-75" x1="2800.17" y1="1285.16" x2="1650.17" y2="1285.16"/><line class="cls-76" x1="1650.17" y1="1247.39" x2="2756.26" y2="1284.77"/><line class="cls-76" x1="1650.17" y1="1210" x2="2712.01" y2="1284.77"/><line class="cls-76" x1="1650.17" y1="1172.61" x2="2667.77" y2="1284.77"/><line class="cls-76" x1="1650.17" y1="1135.22" x2="2623.53" y2="1284.77"/><line class="cls-76" x1="1650.17" y1="1097.83" x2="2579.28" y2="1284.77"/><line class="cls-76" x1="1650.17" y1="1060.44" x2="2535.04" y2="1284.77"/><line class="cls-76" x1="1650.17" y1="1023.05" x2="2490.8" y2="1284.77"/><line class="cls-76" x1="1650.17" y1="985.66" x2="2446.55" y2="1284.77"/><line class="cls-76" x1="1650.17" y1="948.27" x2="2402.31" y2="1284.77"/><line class="cls-76" x1="1650.17" y1="910.88" x2="2358.06" y2="1284.77"/><line class="cls-76" x1="1650.17" y1="873.5" x2="2313.82" y2="1284.77"/><line class="cls-76" x1="1650.17" y1="836.11" x2="2269.58" y2="1284.77"/><line class="cls-76" x1="1650.17" y1="798.72" x2="2225.33" y2="1284.77"/><line class="cls-76" x1="1650.17" y1="761.33" x2="2181.09" y2="1284.77"/><line class="cls-76" x1="1650.17" y1="723.94" x2="2136.85" y2="1284.77"/><line class="cls-76" x1="1650.17" y1="686.55" x2="2092.6" y2="1284.77"/><line class="cls-76" x1="1650.17" y1="649.16" x2="2048.36" y2="1284.77"/><line class="cls-76" x1="1650.17" y1="611.77" x2="2004.12" y2="1284.77"/><line class="cls-76" x1="1650.17" y1="574.38" x2="1959.87" y2="1284.77"/><line class="cls-76" x1="1650.17" y1="537" x2="1915.63" y2="1284.77"/><line class="cls-76" x1="1650.17" y1="499.61" x2="1871.39" y2="1284.77"/><line class="cls-76" x1="1650.17" y1="462.22" x2="1827.14" y2="1284.77"/><line class="cls-76" x1="1650.17" y1="424.83" x2="1782.9" y2="1284.77"/><line class="cls-76" x1="1650.17" y1="387.44" x2="1738.65" y2="1284.77"/><line class="cls-76" x1="1650.17" y1="350.05" x2="1694.41" y2="1284.77"/><line class="cls-75" x1="1649.67" y1="1284.66" x2="1649.67" y2="312.66"/></g><g class="cls-78"><path class="cls-79" d="M1147.81,1279.66A158.66,158.66,0,1,1,989.14,1121a158.65,158.65,0,0,1,158.66,158.65"/></g></g></g></g></svg>