<svg xmlns="http://www.w3.org/2000/svg" viewBox="0 0 60 58.53"><defs><style>.cls-1{fill:#fff;}</style></defs><title>github-ic</title><g id="Layer_2" data-name="Layer 2"><g id="Layer_1-2" data-name="Layer 1"><path class="cls-1" d="M39.49,58.48c-1.52.27-2-.66-2-1.45V48.79c0-2.81-.94-4.61-2-5.55,6.68-.74,13.71-3.28,13.71-14.8a11.55,11.55,0,0,0-3.09-8,10.85,10.85,0,0,0-.31-8c-2.5-.78-8.24,3.09-8.24,3.09a28.2,28.2,0,0,0-15,0s-5.74-3.87-8.28-3.09a11,11,0,0,0-.27,8,11.55,11.55,0,0,0-3.09,8c0,11.48,7,14.06,13.67,14.8a6.49,6.49,0,0,0-1.91,4c-1.72.78-6.09,2.11-8.71-2.5A6.29,6.29,0,0,0,9.3,41.68c-2.93,0-.2,1.84-.2,1.84,2,.9,3.32,4.38,3.32,4.38,1.76,5.35,10.12,3.55,10.12,3.55,0,2.5,0,4.88,0,5.59s-.55,1.72-2.07,1.45a30,30,0,1,1,19,0Z"/></g></g></svg>