<svg width="40" height="40" viewBox="0 0 40 40" fill="none" xmlns="http://www.w3.org/2000/svg">
<circle cx="20" cy="20" r="20" fill="#012E26"/>
<path d="M17.305 24.0967C17.305 25.1308 16.76 26.823 15.47 26.823C14.18 26.823 13.635 25.1308 13.635 24.0967C13.635 23.0627 14.18 21.3705 15.47 21.3705C16.76 21.3705 17.305 23.0627 17.305 24.0967V24.0967ZM32 21.5981C32 23.1765 31.84 24.8488 31.125 26.2985C29.23 30.0885 24.02 29.9994 20.29 29.9994C16.5 29.9994 10.98 30.133 9.01 26.2985C8.28 24.8637 8 23.1765 8 21.5981C8 19.525 8.695 17.5657 10.075 15.9775C9.815 15.1957 9.69 14.3744 9.69 13.5629C9.69 12.4992 9.935 11.9648 10.42 11C12.685 11 14.135 11.4453 15.86 12.7812C17.31 12.4398 18.8 12.2864 20.295 12.2864C21.645 12.2864 23.005 12.4299 24.315 12.7416C26.015 11.4206 27.465 11 29.705 11C30.195 11.9648 30.435 12.4992 30.435 13.5629C30.435 14.3744 30.305 15.1809 30.05 15.9478C31.425 17.5508 32 19.525 32 21.5981V21.5981ZM28.785 24.0967C28.785 21.9247 27.45 20.0099 25.11 20.0099C24.165 20.0099 23.26 20.1781 22.31 20.3068C21.565 20.4206 20.82 20.4651 20.055 20.4651C19.295 20.4651 18.55 20.4206 17.8 20.3068C16.865 20.1781 15.95 20.0099 15 20.0099C12.66 20.0099 11.325 21.9247 11.325 24.0967C11.325 28.4409 15.345 29.1088 18.845 29.1088H21.255C24.77 29.1088 28.785 28.4458 28.785 24.0967V24.0967ZM24.655 21.3705C23.365 21.3705 22.82 23.0627 22.82 24.0967C22.82 25.1308 23.365 26.823 24.655 26.823C25.945 26.823 26.49 25.1308 26.49 24.0967C26.49 23.0627 25.945 21.3705 24.655 21.3705Z" fill="white"/>
</svg>
