<svg xmlns="http://www.w3.org/2000/svg" viewBox="0 0 60 57.34"><defs><style>.cls-1{fill:#fff;}</style></defs><title>linkedin-ic</title><g id="Layer_2" data-name="Layer 2"><g id="Layer_1-2" data-name="Layer 1"><path class="cls-1" d="M7.19,13.36H7.11c-4.34,0-7.11-3-7.11-6.68S2.89,0,7.27,0s7.15,2.89,7.19,6.68S11.68,13.36,7.19,13.36Zm6.45,44H.74V18.63H13.63Zm46.37,0H47.15V36.64c0-5.2-1.87-8.75-6.52-8.75A7,7,0,0,0,34,32.58a9.69,9.69,0,0,0-.43,3.16v21.6H20.74c.16-35.08,0-38.71,0-38.71H33.59v5.63h-.08A12.76,12.76,0,0,1,45.2,17.73c8.48,0,14.8,5.55,14.8,17.42Z"/></g></g></svg>