<svg width="40" height="40" viewBox="0 0 40 40" fill="none" xmlns="http://www.w3.org/2000/svg">
<circle cx="20" cy="20" r="20" fill="#038B71"/>
<path d="M12.3963 14.6583H12.3696C10.9232 14.6583 10 13.6123 10 12.3291C10 11.046 10.9632 10 12.4229 10C13.8827 10 14.8059 11.0077 14.8192 12.3291C14.8325 13.6506 13.8927 14.6583 12.3963 14.6583ZM14.5459 30H10.2466V16.4958H14.5426L14.5459 30ZM30 30H25.714V22.7755C25.714 20.9623 25.0908 19.7245 23.5411 19.7245C23.056 19.7229 22.5825 19.8796 22.1864 20.1727C21.7904 20.4658 21.4915 20.8807 21.3314 21.3598C21.2258 21.7163 21.1774 22.0886 21.1881 22.4616V29.993H16.9122C16.9655 17.7615 16.9122 16.4958 16.9122 16.4958H21.1948V18.4589H21.1681C21.5521 17.739 22.1198 17.1449 22.8077 16.7428C23.4957 16.3408 24.2769 16.1466 25.0642 16.182C27.8904 16.182 29.9967 18.1172 29.9967 22.2559L30 30Z" fill="white"/>
</svg>
