<svg width="40" height="40" viewBox="0 0 40 40" fill="none" xmlns="http://www.w3.org/2000/svg">
<circle cx="20" cy="20" r="20" fill="#05E8BC"/>
<path d="M31.2237 14.4783C31.2237 14.7203 31.2237 14.958 31.2237 15.2001C31.2237 22.5411 25.6535 31 15.4781 31C12.4722 31.0046 9.52866 30.1398 7 28.509C7.43688 28.5578 7.87621 28.5813 8.31579 28.5794C10.8139 28.589 13.2419 27.7515 15.2061 26.2028C14.0512 26.182 12.9316 25.7996 12.0037 25.1092C11.0758 24.4188 10.386 23.4548 10.0307 22.3518C10.376 22.4074 10.7249 22.4368 11.0746 22.4399C11.5659 22.4384 12.0552 22.3748 12.5307 22.2506C11.2777 21.9954 10.1513 21.3129 9.34303 20.3188C8.5347 19.3248 8.09425 18.0806 8.09649 16.7977V16.7272C8.86297 17.1562 9.71954 17.3974 10.5965 17.4314C9.42328 16.6447 8.59318 15.4387 8.27536 14.0591C7.95753 12.6796 8.1759 11.2304 8.88596 10.0068C10.2752 11.7225 12.0083 13.1263 13.9727 14.127C15.9372 15.1278 18.0892 15.7033 20.2895 15.8162C20.2028 15.3993 20.1587 14.9746 20.1579 14.5487C20.1599 13.4351 20.4951 12.3478 21.1202 11.4276C21.7453 10.5075 22.6314 9.79698 23.6637 9.38815C24.6959 8.97932 25.8268 8.89104 26.9096 9.13474C27.9925 9.37844 28.9775 9.9429 29.7368 10.7549C30.9737 10.5215 32.1608 10.0748 33.2456 9.43462C32.8371 10.7258 31.9711 11.8219 30.8114 12.5154C31.9121 12.3834 32.9869 12.0867 34 11.6352C33.2397 12.7321 32.3012 13.6932 31.2237 14.4783V14.4783Z" fill="white"/>
</svg>
