<svg xmlns="http://www.w3.org/2000/svg" viewBox="0 0 61.56 50"><defs><style>.cls-1{fill:#fff;}</style></defs><title>twitter-ic</title><g id="Layer_2" data-name="Layer 2"><g id="Layer_1-2" data-name="Layer 1"><path class="cls-1" d="M55.23,12.46c0,.55,0,1.09,0,1.64,0,16.68-12.7,35.9-35.9,35.9A35.65,35.65,0,0,1,0,44.34a26.09,26.09,0,0,0,3,.16A25.27,25.27,0,0,0,18.71,39.1a12.64,12.64,0,0,1-11.8-8.75,15.9,15.9,0,0,0,2.38.2,13.34,13.34,0,0,0,3.32-.43A12.62,12.62,0,0,1,2.5,17.73v-.16a12.71,12.71,0,0,0,5.7,1.6A12.64,12.64,0,0,1,4.3,2.3a35.86,35.86,0,0,0,26,13.2A14.24,14.24,0,0,1,30,12.62,12.63,12.63,0,0,1,51.84,4a24.84,24.84,0,0,0,8-3,12.58,12.58,0,0,1-5.55,7,25.3,25.3,0,0,0,7.27-2A27.12,27.12,0,0,1,55.23,12.46Z"/></g></g></svg>